<svg xmlns="http://www.w3.org/2000/svg" width="343" height="346" viewBox="0 0 343 346">
  <g id="burn-icon" transform="translate(-1640 -426)">
    <g id="Ellipse_8" data-name="Ellipse 8" transform="translate(1640 426)" fill="none" stroke="#e72cff" stroke-width="6">
      <circle cx="169.5" cy="169.5" r="169.5" stroke="none"/>
      <circle cx="169.5" cy="169.5" r="166.5" fill="none"/>
    </g>
    <g id="Ellipse_9" data-name="Ellipse 9" transform="translate(1644 433)" fill="none" stroke="#ffff14" stroke-width="6">
      <circle cx="169.5" cy="169.5" r="169.5" stroke="none"/>
      <circle cx="169.5" cy="169.5" r="166.5" fill="none"/>
    </g>
    <g id="Expedition" transform="translate(1762.284 531.822)">
      <g id="Icon-19">
        <path id="bonfire" d="M57.213,107.226c21.472,0,40.309-18.834,40.309-40.306,0-18.536-7.96-29.28-16.389-40.656C75.778,19.038,70.245,11.568,66,1.377A2.237,2.237,0,0,0,62.35.656C54.687,8.319,50.1,21.638,47.83,30.044a57.478,57.478,0,0,1-1.812-14.369A2.239,2.239,0,0,0,42.2,14.092C30.66,25.628,16.909,44.158,16.909,66.92c0,21.472,18.834,40.306,40.3,40.306Zm-15.446-86.2a53.59,53.59,0,0,0,4.487,18.044,2.239,2.239,0,0,0,4.205-.6c.04-.222,3.854-20.708,12.833-32.129,4.21,9.051,9.3,15.923,14.242,22.589C85.855,40.161,93.043,49.861,93.043,66.92c0,18.751-17.076,35.828-35.83,35.828S21.387,85.671,21.387,66.92c0-18.939,10.374-34.905,20.379-45.9ZM39.252,126.868a2.241,2.241,0,0,1-1.726,2.656L15.27,134.256a4.478,4.478,0,0,1-5.311-3.446L8.1,122.045a2.24,2.24,0,0,1,4.382-.929l.609,2.877,2.423-.683a2.24,2.24,0,0,1,1.211,4.313l-2.7.759.318,1.5L36.6,125.144a2.238,2.238,0,0,1,2.656,1.724Zm44.471-25.474,15.435-3.283a4.474,4.474,0,0,1,5.309,3.448l1.865,8.762a2.24,2.24,0,0,1-4.382.932l-.535-2.521-2.311.649a2.24,2.24,0,0,1-1.211-4.313l2.589-.726-.394-1.85-15.433,3.28a2.239,2.239,0,1,1-.932-4.38Zm22.61,20.652-.9,4.237c0,.031.007.058,0,.09s-.034.069-.043.107l-.92,4.324a4.483,4.483,0,0,1-5.309,3.453L11.546,115.634A4.482,4.482,0,0,1,8.1,110.32l1.859-8.76a4.492,4.492,0,0,1,5.309-3.448l13.3,2.826a2.239,2.239,0,1,1-.929,4.38l-13.3-2.828-.365,1.726,3.972.869a2.239,2.239,0,0,1-.475,4.427,2.2,2.2,0,0,1-.481-.051l-3.946-.862-.564,2.653,87.61,18.624.466-2.194L91.6,125.89a2.239,2.239,0,0,1,.88-4.391l9.006,1.8.464-2.188-36.036-7.66a2.239,2.239,0,1,1,.932-4.38l36.038,7.66a4.486,4.486,0,0,1,3.448,5.314Zm-51.357-30.5a2.238,2.238,0,0,1,2.237-2.239A22.42,22.42,0,0,0,79.607,66.92a2.239,2.239,0,1,1,4.478,0A26.9,26.9,0,0,1,57.213,93.79a2.238,2.238,0,0,1-2.237-2.239ZM38.17,85.877a2.239,2.239,0,1,1,3.171-3.162,22.3,22.3,0,0,0,7.728,5.07,2.24,2.24,0,1,1-1.632,4.172,26.792,26.792,0,0,1-9.266-6.08ZM16.909,22.392a4.478,4.478,0,1,1,4.478,4.478,4.483,4.483,0,0,1-4.478-4.478ZM37.062,3.359a3.358,3.358,0,1,1,3.359,3.359,3.362,3.362,0,0,1-3.359-3.359ZM21.443,6.718a2.229,2.229,0,0,1,2.226-2.239h.025a2.239,2.239,0,1,1-2.25,2.239ZM79.663,11.2a2.229,2.229,0,0,1,2.226-2.239h.025a2.239,2.239,0,1,1-2.25,2.239Zm-31.7,100.609,22.112,4.85a2.24,2.24,0,0,1-.477,4.427,2.189,2.189,0,0,1-.481-.054l-22.112-4.85a2.239,2.239,0,1,1,.958-4.373Z" transform="translate(-8)" fill="#f8fe45" fill-rule="evenodd"/>
      </g>
    </g>
  </g>
</svg>
