<svg xmlns="http://www.w3.org/2000/svg" width="1802.975" height="961.95" viewBox="0 0 1802.975 961.95"><g transform="translate(2.475 2.475)"><line y1="771" x2="771" transform="translate(138 19)" fill="none" stroke="#f8fe45" stroke-width="7"/><line y1="771" x2="771" transform="translate(152)" fill="none" stroke="#f145ff" stroke-width="7"/><line y1="771" x2="771" transform="translate(0 186)" fill="none" stroke="#f8fe45" stroke-width="7"/><line y1="771" x2="771" transform="translate(14 167)" fill="none" stroke="#f145ff" stroke-width="7"/><g transform="translate(-373.5 -107.5)"><rect width="457" height="148" transform="translate(618 490)" fill="#45ffd4" opacity="0.417"/><rect width="500" height="148" transform="translate(618 331)" fill="#f8ff45" opacity="0.417"/><rect width="504" height="148" transform="translate(642 351)" fill="#f8ff45"/><rect width="457" height="148" transform="translate(638 510)" fill="#45ffd4"/><path d="M11.04,41.76V156H36.16V108.8H84V89.28H36.16V62.88h55.2V41.76Zm120,51.68V61.28h27.52q8.64,0,12.96,3.76t4.32,12.08q0,8.64-4.32,12.48t-12.96,3.84ZM105.92,41.76V156h25.12V111.36h25.12q9.44,0,13.6,4.16t5.44,13.12q.96,6.88,1.44,14.4A44.291,44.291,0,0,0,179.2,156h25.12a16.813,16.813,0,0,1-2.64-5.84,50.446,50.446,0,0,1-1.28-7.28q-.4-3.84-.56-7.52t-.32-6.4a68.659,68.659,0,0,0-1.2-8.64,29.05,29.05,0,0,0-2.8-7.92,21.735,21.735,0,0,0-4.96-6.24,19.376,19.376,0,0,0-7.68-3.92v-.32q9.6-3.84,13.84-11.2a34.346,34.346,0,0,0,4.24-17.44,32.057,32.057,0,0,0-2.32-12.24,29.518,29.518,0,0,0-6.72-10,31.853,31.853,0,0,0-10.56-6.8,36.774,36.774,0,0,0-13.84-2.48ZM241.6,99.36a62.513,62.513,0,0,1,1.68-14.56,38.56,38.56,0,0,1,5.36-12.56,27.189,27.189,0,0,1,9.6-8.8,33.25,33.25,0,0,1,28.8,0,27.189,27.189,0,0,1,9.6,8.8A38.56,38.56,0,0,1,302,84.8a62.514,62.514,0,0,1,1.68,14.56,58.154,58.154,0,0,1-1.68,14,37.835,37.835,0,0,1-5.36,12.24,27.472,27.472,0,0,1-9.6,8.72,33.25,33.25,0,0,1-28.8,0,27.472,27.472,0,0,1-9.6-8.72,37.835,37.835,0,0,1-5.36-12.24A58.154,58.154,0,0,1,241.6,99.36Zm-25.12,0a69,69,0,0,0,3.84,23.28,55.6,55.6,0,0,0,11.04,18.8A50.57,50.57,0,0,0,249.04,154a63.557,63.557,0,0,0,47.28,0,50.746,50.746,0,0,0,17.6-12.56,55.6,55.6,0,0,0,11.04-18.8,69,69,0,0,0,3.84-23.28,71.381,71.381,0,0,0-3.84-23.76,57.074,57.074,0,0,0-11.04-19.12,50.659,50.659,0,0,0-17.6-12.8,62.541,62.541,0,0,0-47.28,0,50.479,50.479,0,0,0-17.68,12.8A57.074,57.074,0,0,0,220.32,75.6,71.381,71.381,0,0,0,216.48,99.36Zm129.44-57.6V156h23.52V75.84h.32l28,80.16h19.36l28-80.96h.32V156h23.52V41.76H433.6l-25.28,78.56H408L381.28,41.76Z" transform="translate(653 325)" fill="#1a1a1a"/><path d="M3.427,126.524V145h89.7V125.332H34.568L91.635,57.09V38.614H7.9V58.282h52.6Zm103.406-87.91V145h80.758V125.332H130.226V99.257H181.78V81.079H130.226v-22.8H186.4V38.614ZM226.778,86.741V56.792h25.628q8.046,0,12.069,3.5T268.5,71.543q0,8.046-4.023,11.622t-12.069,3.576ZM203.385,38.614V145h23.393V103.429h23.393q8.791,0,12.665,3.874t5.066,12.218q.894,6.407,1.341,13.41A41.245,41.245,0,0,0,271.627,145H295.02a15.657,15.657,0,0,1-2.458-5.439,46.974,46.974,0,0,1-1.192-6.779q-.372-3.576-.521-7t-.3-5.96a63.928,63.928,0,0,0-1.117-8.046,27.053,27.053,0,0,0-2.607-7.375,20.242,20.242,0,0,0-4.619-5.811,18.044,18.044,0,0,0-7.152-3.65v-.3q8.94-3.576,12.888-10.43a31.985,31.985,0,0,0,3.948-16.241,29.852,29.852,0,0,0-2.16-11.4,27.489,27.489,0,0,0-6.258-9.312,29.663,29.663,0,0,0-9.834-6.332,34.245,34.245,0,0,0-12.888-2.31Z" transform="translate(653 490)" fill="#1a1a1a"/><g transform="translate(17 80.345)"><ellipse cx="55.5" cy="57" rx="55.5" ry="57" transform="translate(941 446.655)" fill="#1a1a1a"/><ellipse cx="55.5" cy="57" rx="55.5" ry="57" transform="translate(941 446.655)" fill="#1a1a1a"/><g transform="translate(985.548 492.074)"><line x2="48.519" y2="52.039" transform="translate(-13.308 -14.155)" fill="none" stroke="#fff" stroke-width="4"/><line x2="52.567" y2="48.523" transform="translate(35.213 -14.419) rotate(90)" fill="none" stroke="#fff" stroke-width="4" opacity="0.8"/></g></g></g><g transform="translate(326.5 -107.5)"><rect width="838" height="148" transform="translate(618 490)" fill="#ff45db" opacity="0.417"/><rect width="139" height="100" transform="translate(435 490)" fill="#fff" opacity="0.417"/><rect width="137" height="104" transform="translate(448 505)" fill="#fff"/><rect width="836" height="148" transform="translate(638 510)" fill="#ff45db"/><path d="M18.16,31.44V78H30.72V31.44H47.84V20.88H1.04V31.44ZM64.48,49.68a31.257,31.257,0,0,1,.84-7.28A19.28,19.28,0,0,1,68,36.12a13.6,13.6,0,0,1,4.8-4.4A14.662,14.662,0,0,1,80,30.08a14.662,14.662,0,0,1,7.2,1.64,13.6,13.6,0,0,1,4.8,4.4,19.28,19.28,0,0,1,2.68,6.28,31.256,31.256,0,0,1,.84,7.28,29.077,29.077,0,0,1-.84,7A18.918,18.918,0,0,1,92,62.8a13.736,13.736,0,0,1-4.8,4.36A14.662,14.662,0,0,1,80,68.8a14.662,14.662,0,0,1-7.2-1.64A13.736,13.736,0,0,1,68,62.8a18.918,18.918,0,0,1-2.68-6.12A29.077,29.077,0,0,1,64.48,49.68Zm-12.56,0a34.5,34.5,0,0,0,1.92,11.64,27.8,27.8,0,0,0,5.52,9.4A25.285,25.285,0,0,0,68.2,77,29.29,29.29,0,0,0,80,79.28,29.214,29.214,0,0,0,91.84,77a25.373,25.373,0,0,0,8.8-6.28,27.8,27.8,0,0,0,5.52-9.4,34.5,34.5,0,0,0,1.92-11.64,35.691,35.691,0,0,0-1.92-11.88,28.537,28.537,0,0,0-5.52-9.56,25.33,25.33,0,0,0-8.8-6.4A28.777,28.777,0,0,0,80,19.52a28.851,28.851,0,0,0-11.8,2.32,25.239,25.239,0,0,0-8.84,6.4,28.537,28.537,0,0,0-5.52,9.56A35.691,35.691,0,0,0,51.92,49.68Z" transform="translate(459 509)" fill="#1a1a1a"/><path d="M58.408,145V40.7H41.571a23.029,23.029,0,0,1-3.725,9.983,22.666,22.666,0,0,1-6.929,6.481,27.79,27.79,0,0,1-9.238,3.427,50.087,50.087,0,0,1-10.654.82V77.354H37.25V145Z" transform="translate(653 490)" fill="#1a1a1a"/><path d="M58.408,145V40.7H41.571a23.029,23.029,0,0,1-3.725,9.983,22.666,22.666,0,0,1-6.929,6.481,27.79,27.79,0,0,1-9.238,3.427,50.087,50.087,0,0,1-10.654.82V77.354H37.25V145Z" transform="translate(653 490)" fill="#1a1a1a"/><g transform="translate(17 80.345)"><ellipse cx="55.5" cy="57" rx="55.5" ry="57" transform="translate(714 446.655)" fill="#1a1a1a"/><ellipse cx="55.5" cy="57" rx="55.5" ry="57" transform="translate(834 446.655)" fill="#1a1a1a"/><ellipse cx="55.5" cy="57" rx="55.5" ry="57" transform="translate(954 446.655)" fill="#1a1a1a"/><ellipse cx="55.5" cy="57" rx="55.5" ry="57" transform="translate(1074 446.655)" fill="#1a1a1a"/><ellipse cx="55.5" cy="57" rx="55.5" ry="57" transform="translate(1194 446.655)" fill="#1a1a1a"/><ellipse cx="55.5" cy="57" rx="55.5" ry="57" transform="translate(1314 446.655)" fill="#1a1a1a"/><g transform="translate(985.548 492.074)"><line x2="48.519" y2="52.039" transform="translate(-240.308 -14.155)" fill="none" stroke="#fff" stroke-width="4"/><line x2="48.519" y2="52.039" transform="translate(-120.308 -14.155)" fill="none" stroke="#fff" stroke-width="4"/><line x2="48.519" y2="52.039" transform="translate(-0.308 -14.155)" fill="none" stroke="#fff" stroke-width="4"/><line x2="48.519" y2="52.039" transform="translate(-0.308 -14.155)" fill="none" stroke="#fff" stroke-width="4"/><line x2="48.519" y2="52.039" transform="translate(119.692 -14.155)" fill="none" stroke="#fff" stroke-width="4"/><line x2="48.519" y2="52.039" transform="translate(239.692 -14.155)" fill="none" stroke="#fff" stroke-width="4"/><line x2="48.519" y2="52.039" transform="translate(359.692 -14.155)" fill="none" stroke="#fff" stroke-width="4"/><line x2="52.567" y2="48.523" transform="translate(-191.787 -14.419) rotate(90)" fill="none" stroke="#fff" stroke-width="4" opacity="0.8"/><line x2="52.567" y2="48.523" transform="translate(-71.787 -14.419) rotate(90)" fill="none" stroke="#fff" stroke-width="4" opacity="0.8"/><line x2="52.567" y2="48.523" transform="translate(48.213 -14.419) rotate(90)" fill="none" stroke="#fff" stroke-width="4" opacity="0.8"/><line x2="52.567" y2="48.523" transform="translate(48.213 -14.419) rotate(90)" fill="none" stroke="#fff" stroke-width="4" opacity="0.8"/><line x2="52.567" y2="48.523" transform="translate(168.213 -14.419) rotate(90)" fill="none" stroke="#fff" stroke-width="4" opacity="0.8"/><line x2="52.567" y2="48.523" transform="translate(288.213 -14.419) rotate(90)" fill="none" stroke="#fff" stroke-width="4" opacity="0.8"/><line x2="52.567" y2="48.523" transform="translate(408.213 -14.419) rotate(90)" fill="none" stroke="#fff" stroke-width="4" opacity="0.8"/></g></g></g></g></svg>