<svg xmlns="http://www.w3.org/2000/svg" width="343" height="346" viewBox="0 0 343 346">
  <g id="liquidity-icon" transform="translate(-1640 -426)">
    <g id="Ellipse_8" data-name="Ellipse 8" transform="translate(1640 426)" fill="none" stroke="#e72cff" stroke-width="6">
      <circle cx="169.5" cy="169.5" r="169.5" stroke="none"/>
      <circle cx="169.5" cy="169.5" r="166.5" fill="none"/>
    </g>
    <g id="Ellipse_9" data-name="Ellipse 9" transform="translate(1644 433)" fill="none" stroke="#ffff14" stroke-width="6">
      <circle cx="169.5" cy="169.5" r="169.5" stroke="none"/>
      <circle cx="169.5" cy="169.5" r="166.5" fill="none"/>
    </g>
    <g id="wavy" transform="translate(1751.5 536)">
      <g id="Group_8" data-name="Group 8" transform="translate(0.5)">
        <path id="Path_1" data-name="Path 1" d="M61.452.6h0a2.121,2.121,0,0,0-.673-.447,2.023,2.023,0,0,0-.443-.09A2.322,2.322,0,0,0,60,0a1.94,1.94,0,0,0-.439.09,1.885,1.885,0,0,0-.336.07,2.152,2.152,0,0,0-.685.455l-16.4,16.4a2.051,2.051,0,0,0,2.9,2.9L57.948,7.009V17.575c0,6.73,2.848,9.6,5.142,11.9,1.781,1.793,3.065,3.09,3.065,6.065,0,2.827-2.684,4.428-7.1,6.734-4.366,2.273-9.311,4.85-9.311,10.369s4.953,8.092,9.315,10.361c4.415,2.3,7.1,3.9,7.1,6.721s-2.684,4.432-7.1,6.734c-4.37,2.273-9.315,4.85-9.315,10.373s4.945,8.1,9.311,10.369c4.419,2.3,7.1,3.9,7.1,6.734s-2.684,4.432-7.1,6.738c-4.366,2.273-9.311,4.85-9.311,10.373a2.052,2.052,0,0,0,4.1,0c0-2.827,2.684-4.432,7.1-6.738,4.366-2.273,9.311-4.85,9.311-10.373s-4.945-8.1-9.315-10.369c-4.415-2.3-7.1-3.906-7.1-6.734s2.684-4.432,7.1-6.734c4.366-2.273,9.311-4.85,9.311-10.369s-4.949-8.092-9.311-10.361c-4.419-2.3-7.1-3.9-7.1-6.725s2.684-4.432,7.1-6.734c4.37-2.273,9.315-4.85,9.315-10.373,0-4.67-2.265-6.943-4.259-8.954-2.121-2.13-3.947-3.972-3.947-9.011V7.009L74.961,19.918a2.053,2.053,0,0,0,2.905-2.9ZM20.419.6h0a2.121,2.121,0,0,0-.673-.447A2.065,2.065,0,0,0,19.3.07,1.885,1.885,0,0,0,18.966,0a1.976,1.976,0,0,0-.443.09,1.949,1.949,0,0,0-.336.066,2.09,2.09,0,0,0-.681.455L1.1,17.017a2.051,2.051,0,0,0,2.9,2.9L16.914,7.009V17.575c0,6.73,2.848,9.6,5.142,11.9,1.781,1.793,3.065,3.09,3.065,6.065,0,2.827-2.684,4.428-7.1,6.734-4.366,2.273-9.311,4.85-9.311,10.369s4.953,8.092,9.315,10.361c4.415,2.3,7.1,3.9,7.1,6.721s-2.684,4.432-7.1,6.734c-4.37,2.273-9.315,4.85-9.315,10.373s4.945,8.1,9.311,10.369c4.419,2.3,7.1,3.9,7.1,6.734s-2.684,4.432-7.1,6.738c-4.366,2.273-9.311,4.85-9.311,10.373a2.052,2.052,0,0,0,4.1,0c0-2.827,2.684-4.432,7.1-6.738,4.362-2.273,9.311-4.85,9.311-10.373s-4.945-8.1-9.315-10.369c-4.415-2.3-7.1-3.906-7.1-6.734s2.684-4.432,7.1-6.734c4.362-2.273,9.311-4.85,9.311-10.369s-4.949-8.092-9.311-10.361c-4.419-2.3-7.1-3.9-7.1-6.725s2.684-4.432,7.1-6.734c4.37-2.273,9.315-4.85,9.315-10.373,0-4.67-2.265-6.943-4.259-8.954-2.121-2.13-3.947-3.972-3.947-9.011V7.009L33.927,19.918a2.053,2.053,0,0,0,2.905-2.9ZM118.9,17.017,102.486.6h0a2.122,2.122,0,0,0-.673-.447,2.024,2.024,0,0,0-.443-.09A2.324,2.324,0,0,0,101.034,0a1.94,1.94,0,0,0-.439.09,1.885,1.885,0,0,0-.336.07,2.107,2.107,0,0,0-.685.455l-16.4,16.4a2.051,2.051,0,1,0,2.9,2.9L98.982,7.009V17.575c0,6.73,2.848,9.6,5.141,11.9,1.781,1.793,3.065,3.09,3.065,6.065,0,2.827-2.684,4.428-7.1,6.734-4.366,2.273-9.311,4.85-9.311,10.369s4.953,8.092,9.315,10.361c4.415,2.3,7.1,3.9,7.1,6.721s-2.684,4.432-7.1,6.734c-4.37,2.273-9.315,4.85-9.315,10.373s4.945,8.1,9.311,10.369c4.419,2.3,7.1,3.9,7.1,6.734s-2.684,4.432-7.1,6.738c-4.366,2.273-9.311,4.85-9.311,10.373a2.052,2.052,0,0,0,4.1,0c0-2.827,2.684-4.432,7.1-6.738,4.366-2.273,9.311-4.85,9.311-10.373s-4.945-8.1-9.315-10.369c-4.415-2.3-7.1-3.906-7.1-6.734s2.684-4.432,7.1-6.734c4.366-2.273,9.311-4.85,9.311-10.369s-4.949-8.092-9.311-10.361c-4.419-2.3-7.1-3.9-7.1-6.725s2.684-4.432,7.1-6.734c4.37-2.273,9.315-4.85,9.315-10.373,0-4.67-2.265-6.943-4.259-8.954-2.121-2.13-3.947-3.972-3.947-9.011V7.009l12.909,12.909a2.053,2.053,0,1,0,2.905-2.9Z" transform="translate(-0.5)" fill="#e72cff"/>
      </g>
    </g>
  </g>
</svg>
