<svg xmlns="http://www.w3.org/2000/svg" width="513.13" height="82.11" viewBox="0 0 513.13 82.11">
  <path id="logo-revived" d="M25.99,67.035V43.92H45.77q6.21,0,9.315,2.7t3.1,8.682q0,6.21-3.1,8.97t-9.315,2.76ZM7.935,29.89V112H25.99V79.915H44.045q6.785,0,9.775,2.99t3.91,9.43q.69,4.945,1.035,10.35A31.834,31.834,0,0,0,60.6,112H78.66a12.084,12.084,0,0,1-1.9-4.2,36.258,36.258,0,0,1-.92-5.232q-.287-2.76-.4-5.4t-.23-4.6a49.346,49.346,0,0,0-.863-6.21,20.88,20.88,0,0,0-2.012-5.692,15.622,15.622,0,0,0-3.565-4.485,13.927,13.927,0,0,0-5.52-2.817v-.23q6.9-2.76,9.948-8.05a24.686,24.686,0,0,0,3.047-12.535,23.041,23.041,0,0,0-1.667-8.8,21.216,21.216,0,0,0-4.83-7.187,22.9,22.9,0,0,0-7.59-4.887A26.431,26.431,0,0,0,52.21,29.89Zm83.03,0V112h62.33V96.82H109.02V76.695h39.79V62.665H109.02V45.07h43.355V29.89ZM203.665,112,230.92,29.89H212.29L193.775,87.62h-.23L175.26,29.89H156.745L183.31,112Zm34.27-82.11V112H255.99V29.89ZM310.04,112l27.255-82.11h-18.63L300.15,87.62h-.23L281.635,29.89H263.12L289.685,112Zm34.27-82.11V112h62.33V96.82H362.365V76.695h39.79V62.665h-39.79V45.07H405.72V29.89Zm92.575,66.93V45.07h12.88a29.153,29.153,0,0,1,11.212,1.9,17.6,17.6,0,0,1,7.3,5.463A22.37,22.37,0,0,1,472.247,61a47.876,47.876,0,0,1,1.207,11.213,33.644,33.644,0,0,1-1.725,11.5,21.094,21.094,0,0,1-4.6,7.647,16.7,16.7,0,0,1-6.555,4.2,23.188,23.188,0,0,1-7.59,1.265ZM418.83,29.89V112h35.42a39.3,39.3,0,0,0,16.387-3.162,32.6,32.6,0,0,0,11.615-8.683,36.44,36.44,0,0,0,6.957-13.11,56.884,56.884,0,0,0,2.3-16.56,51.169,51.169,0,0,0-2.817-17.825,35.039,35.039,0,0,0-7.82-12.65,32.076,32.076,0,0,0-11.845-7.59,42.281,42.281,0,0,0-14.777-2.53Zm84.18,64.4V112h18.055V94.29Z" transform="translate(-7.935 -29.89)" fill="#fff"/>
</svg>
