<svg xmlns="http://www.w3.org/2000/svg" width="477" height="327" viewBox="0 0 477 327"><rect width="457" height="148" transform="translate(0 159)" fill="#45ffd4" opacity="0.417"/><rect width="457" height="148" fill="#f8ff45" opacity="0.417"/><rect width="457" height="148" transform="translate(20 20)" fill="#f8ff45"/><rect width="457" height="148" transform="translate(20 179)" fill="#45ffd4"/><path d="M28.16,118.08H3.84q-.16,10.56,3.84,18.24a35.961,35.961,0,0,0,10.8,12.64,46.078,46.078,0,0,0,15.68,7.28,72.175,72.175,0,0,0,18.32,2.32,70.341,70.341,0,0,0,20.56-2.72,43.477,43.477,0,0,0,14.88-7.6,31.631,31.631,0,0,0,9.04-11.6A34.909,34.909,0,0,0,100,122.08q0-9.6-4.08-15.76a34.08,34.08,0,0,0-9.68-9.84,42.554,42.554,0,0,0-11.28-5.36q-5.68-1.68-8.88-2.32-10.72-2.72-17.36-4.48a64.393,64.393,0,0,1-10.4-3.52q-3.76-1.76-5.04-3.84A10.267,10.267,0,0,1,32,71.52a10.741,10.741,0,0,1,1.6-6.08,13.9,13.9,0,0,1,4.08-4A16.264,16.264,0,0,1,43.2,59.2a29.44,29.44,0,0,1,6.08-.64,42.846,42.846,0,0,1,8.56.8,20.632,20.632,0,0,1,6.96,2.72,14.135,14.135,0,0,1,4.88,5.28,20.2,20.2,0,0,1,2.16,8.48H96.16q0-9.92-3.76-16.88A32.78,32.78,0,0,0,82.24,47.52,42.9,42.9,0,0,0,67.6,41.04a72.678,72.678,0,0,0-17.2-2,58.534,58.534,0,0,0-15.36,2.08,42.883,42.883,0,0,0-13.76,6.4,34.069,34.069,0,0,0-9.84,10.8A29.913,29.913,0,0,0,7.68,73.6a27.933,27.933,0,0,0,2.96,13.36,28.256,28.256,0,0,0,7.76,9.2,42.879,42.879,0,0,0,10.88,6,109.4,109.4,0,0,0,12.48,3.92q6.24,1.76,12.32,3.2a77.451,77.451,0,0,1,10.88,3.36,23.475,23.475,0,0,1,7.76,4.8,10.022,10.022,0,0,1,2.96,7.52,11.04,11.04,0,0,1-2.24,7.12,15.709,15.709,0,0,1-5.6,4.4,25.052,25.052,0,0,1-7.2,2.16,50.042,50.042,0,0,1-7.2.56,38.186,38.186,0,0,1-9.6-1.2,23.9,23.9,0,0,1-8.08-3.68,18.175,18.175,0,0,1-5.52-6.48A20.953,20.953,0,0,1,28.16,118.08Zm115.52-6.24,14.88-41.92h.32l14.4,41.92Zm2.4-70.08L102.88,156h25.28l8.96-25.44h42.72L188.48,156h26.08L171.84,41.76Zm78.4,0V156H249.6V108.8h47.84V89.28H249.6V62.88h55.2V41.76Zm94.88,0V156h86.72V134.88h-61.6v-28h55.36V87.36H344.48V62.88H404.8V41.76Z" transform="translate(35 -6)" fill="#1a1a1a"/><path d="M3.427,126.524V145h89.7V125.332H34.568L91.635,57.09V38.614H7.9V58.282h52.6Zm103.406-87.91V145h80.758V125.332H130.226V99.257H181.78V81.079H130.226v-22.8H186.4V38.614ZM226.778,86.741V56.792h25.628q8.046,0,12.069,3.5T268.5,71.543q0,8.046-4.023,11.622t-12.069,3.576ZM203.385,38.614V145h23.393V103.429h23.393q8.791,0,12.665,3.874t5.066,12.218q.894,6.407,1.341,13.41A41.245,41.245,0,0,0,271.627,145H295.02a15.657,15.657,0,0,1-2.458-5.439,46.974,46.974,0,0,1-1.192-6.779q-.372-3.576-.521-7t-.3-5.96a63.928,63.928,0,0,0-1.117-8.046,27.053,27.053,0,0,0-2.607-7.375,20.242,20.242,0,0,0-4.619-5.811,18.044,18.044,0,0,0-7.152-3.65v-.3q8.94-3.576,12.888-10.43a31.985,31.985,0,0,0,3.948-16.241,29.852,29.852,0,0,0-2.16-11.4,27.489,27.489,0,0,0-6.258-9.312,29.663,29.663,0,0,0-9.834-6.332,34.245,34.245,0,0,0-12.888-2.31Z" transform="translate(35 159)" fill="#1a1a1a"/><g transform="translate(-601 -250.655)"><ellipse cx="55.5" cy="57" rx="55.5" ry="57" transform="translate(941 446.655)" fill="#1a1a1a"/><ellipse cx="55.5" cy="57" rx="55.5" ry="57" transform="translate(941 446.655)" fill="#1a1a1a"/><g transform="translate(985.548 492.074)"><line x2="48.519" y2="52.039" transform="translate(-13.308 -14.155)" fill="none" stroke="#fff" stroke-width="4"/><line x2="52.567" y2="48.523" transform="translate(35.213 -14.419) rotate(90)" fill="none" stroke="#fff" stroke-width="4" opacity="0.8"/></g></g></svg>