<svg xmlns="http://www.w3.org/2000/svg" width="343" height="346" viewBox="0 0 343 346">
  <g id="yield-icon" transform="translate(-1640 -426)">
    <g id="Ellipse_8" data-name="Ellipse 8" transform="translate(1640 426)" fill="none" stroke="#e72cff" stroke-width="6">
      <circle cx="169.5" cy="169.5" r="169.5" stroke="none"/>
      <circle cx="169.5" cy="169.5" r="166.5" fill="none"/>
    </g>
    <g id="Ellipse_9" data-name="Ellipse 9" transform="translate(1644 433)" fill="none" stroke="#ffff14" stroke-width="6">
      <circle cx="169.5" cy="169.5" r="169.5" stroke="none"/>
      <circle cx="169.5" cy="169.5" r="166.5" fill="none"/>
    </g>
    <g id="coins.1" transform="translate(1747.941 535.882)">
      <path id="Path_2" data-name="Path 2" d="M41.625,90.751A41.125,41.125,0,1,1,82.751,49.625,41.168,41.168,0,0,1,41.625,90.751Zm0-76.767A35.642,35.642,0,1,0,77.267,49.625,35.683,35.683,0,0,0,41.625,13.983Z" transform="translate(0 35.867)" fill="#24ffee"/>
      <g id="Group_9" data-name="Group 9" transform="translate(27.917 60.817)">
        <path id="Path_3" data-name="Path 3" d="M19.2,50.884C11.888,50.884,6,46.5,5.511,40.674a2.74,2.74,0,1,1,5.461-.461C11.214,43.07,14.9,45.4,19.2,45.4c4.463,0,8.236-2.511,8.236-5.483,0-2.676-2.6-4.4-8.17-5.423l-.6-.115C9.766,32.739,5.5,29.1,5.5,23.467,5.5,17.419,11.652,12.5,19.219,12.5c7.309,0,13.193,4.387,13.687,10.2a2.746,2.746,0,0,1-2.5,2.967,2.785,2.785,0,0,1-2.961-2.5c-.241-2.862-3.932-5.187-8.225-5.187-4.463,0-8.236,2.511-8.236,5.483,0,2.676,2.6,4.4,8.192,5.429l.6.115c8.883,1.64,13.138,5.28,13.138,10.912C32.917,45.965,26.765,50.884,19.2,50.884Z" transform="translate(-5.5 -7.017)" fill="#24ffee"/>
        <path id="Path_4" data-name="Path 4" d="M10.242,60.85A2.743,2.743,0,0,1,7.5,58.109V14.242a2.742,2.742,0,1,1,5.483,0V58.109A2.743,2.743,0,0,1,10.242,60.85Z" transform="translate(3.467 -11.5)" fill="#24ffee"/>
      </g>
      <path id="Path_5" data-name="Path 5" d="M49.625,82.751a2.742,2.742,0,1,1,0-5.483A35.642,35.642,0,1,0,13.983,41.625a2.742,2.742,0,0,1-5.483,0A41.125,41.125,0,1,1,49.625,82.751Z" transform="translate(35.867)" fill="#24ffee"/>
      <g id="Group_10" data-name="Group 10" transform="translate(71.784 16.95)">
        <path id="Path_6" data-name="Path 6" d="M27.2,42.884c-7.309,0-13.193-4.387-13.687-10.21a2.74,2.74,0,1,1,5.461-.461C19.214,35.07,22.9,37.4,27.2,37.4c4.463,0,8.236-2.511,8.236-5.483,0-2.676-2.6-4.4-8.17-5.423l-.6-.115C17.766,24.739,13.5,21.1,13.5,15.467,13.5,9.419,19.652,4.5,27.219,4.5c7.309,0,13.193,4.387,13.687,10.2a2.746,2.746,0,0,1-2.5,2.967,2.785,2.785,0,0,1-2.961-2.5c-.241-2.862-3.932-5.187-8.225-5.187-4.463,0-8.236,2.511-8.236,5.483,0,2.676,2.6,4.4,8.192,5.429l.6.115c8.889,1.64,13.144,5.28,13.144,10.906C40.917,37.965,34.765,42.884,27.2,42.884Z" transform="translate(-13.5 0.983)" fill="#24ffee"/>
        <path id="Path_7" data-name="Path 7" d="M18.242,52.85A2.743,2.743,0,0,1,15.5,50.109V6.242a2.742,2.742,0,1,1,5.483,0V50.109A2.743,2.743,0,0,1,18.242,52.85Z" transform="translate(-4.533 -3.5)" fill="#24ffee"/>
      </g>
    </g>
  </g>
</svg>
